inDegrees=yes
name=ik_data_2024_11_07_17_57
DataType=double
version=3
OpenSimVersion=4.5.1
endheader
time	pelvis_tilt	pelvis_list	pelvis_rotation	pelvis_tx	pelvis_ty	pelvis_tz	hip_flexion_r	hip_adduction_r	hip_rotation_r	knee_angle_r	knee_angle_r_beta	ankle_angle_r	subtalar_angle_r	mtp_angle_r	hip_flexion_l	hip_adduction_l	hip_rotation_l	knee_angle_l	knee_angle_l_beta	ankle_angle_l	subtalar_angle_l	mtp_angle_l	lumbar_extension	lumbar_bending	lumbar_rotation	arm_flex_r	arm_add_r	arm_rot_r	elbow_flex_r	pro_sup_r	wrist_flex_r	wrist_dev_r	arm_flex_l	arm_add_l	arm_rot_l	elbow_flex_l	pro_sup_l	wrist_flex_l	wrist_dev_l
5.00259	-44.17090248920589	-13.54960348514535	-62.68473654381337	0	0.9399999999999999	0	108.3475419294378	29.96750572987558	-21.98123119445292	64.08952215264881	1.118573177593566	-5.035544544279392	0	0	45.96191578661383	-49.98825945999009	-39.99537004944634	10.19674147994857	0.1779667117997819	-5.035544544279392	0	0	0	0	0	0	-6.176767142971716	0	65.76709467963761	47.03241315257264	0	0	0	-6.176767142971716	0	65.76709467963761	47.03241315257264	0	0
5.05274	-43.99436359720424	-13.71674950115643	-62.44603268581223	0	0.9399999999999999	0	108.4525997302688	29.9699098649304	-21.94044571223452	64.18601742828977	1.12025733786612	-5.035482481205631	0	0	45.72028409497162	-49.98796109705799	-39.9953493541645	10.29585625465465	0.1796965909557754	-5.035482481205631	0	0	0	0	0	0	-6.178517842573179	0	65.77070195922973	47.03025174137125	0	0	0	-6.178517842573179	0	65.77070195922973	47.03025174137125	0	0
5.11719	-46.48614723727348	-11.9838118959122	-63.8490966493659	0	0.9399999999999999	0	115.5511912049648	29.97951594772828	-26.06073804578221	66.89760375335939	1.167583447190638	-5.035216745487734	0	0	48.39991322081941	-49.98956938293578	-39.99533008465221	8.887127608460295	0.1551096378125216	-5.035216745487734	0	0	0	0	0	0	-6.185999875357785	0	65.78614147800501	47.02099177101914	0	0	0	-6.185999875357785	0	65.78614147800501	47.02099177101914	0	0
5.18072	-46.23143976772817	-12.30917422389702	-63.42546308323492	0	0.9399999999999999	0	116.3343883409142	29.98125051837249	-26.05507889989718	67.42652984958477	1.176814949069491	-5.035046355038924	0	0	47.97754382995987	-49.98918354979461	-39.99528605819705	9.064511850989041	0.1582055768858044	-5.035046355038924	0	0	0	0	0	0	-6.190821274273373	0	65.79607950336363	47.015043920063	0	0	0	-6.190821274273373	0	65.79607950336363	47.015043920063	0	0
5.18423	-46.07355579331766	-12.67368569092355	-62.96910870974977	0	0.9399999999999999	0	117.2039552667084	29.98304783964356	-26.02815370246285	68.1470657024723	1.189390672081044	-5.034891409279481	0	0	47.55943829244647	-49.9887762981596	-39.99522326391621	9.166990513979755	0.159994166968034	-5.034891409279481	0	0	0	0	0	0	-6.195228678919886	0	65.80515706553554	47.00962346416173	0	0	0	-6.195228678919886	0	65.80515706553554	47.00962346416173	0	0
5.23618	-44.26929818029075	-14.29294322494173	-61.133675787173	0	0.9399999999999999	0	114.3513325112113	29.98415433595891	-23.7472143164704	68.12641540912597	1.189030256470648	-5.03462058041633	0	0	45.24806879513022	-49.98651992746156	-39.99509387337982	10.22296895370044	0.1784244675712325	-5.03462058041633	0	0	0	0	0	0	-6.203007551691499	0	65.82115149355612	47.00011393372733	0	0	0	-6.203007551691499	0	65.82115149355612	47.00011393372733	0	0
5.29077	-41.96540758776597	-16.07529957837926	-58.95898059858728	0	0.9399999999999999	0	110.7507805116098	29.98482627285027	-21.27030844630521	68.62371657080428	1.197709799115927	-5.034336981452157	0	0	42.53208101433792	-49.98245743561401	-39.99494788677737	11.50418712926011	0.2007859431711435	-5.034336981452157	0	0	0	0	0	0	-6.211198377133592	0	65.8379834361716	46.9901297219945	0	0	0	-6.211198377133592	0	65.8379834361716	46.9901297219945	0	0
5.35869	-40.74484165534059	-17.04668390293472	-57.6039410263127	0	0.9399999999999999	0	108.6645193864974	29.98583285035981	-19.67376594077631	69.15796173529915	1.207034136249221	-5.034075672099279	0	0	41.05208980108605	-49.97859555665483	-39.99481984350827	12.14331511391612	0.2119408308450266	-5.034075672099279	0	0	0	0	0	0	-6.218758905146059	0	65.85352427659252	46.98091692072044	0	0	0	-6.218758905146059	0	65.85352427659252	46.98091692072044	0	0
5.36118	-38.57725189851472	-18.58068840475887	-55.49516406176257	0	0.9399999999999999	0	105.1489719523379	29.98584410496706	-17.36107866025673	69.54435884912257	1.213778038105643	-5.033860674675299	0	0	38.59059175736255	-49.96829399505727	-39.99463324678047	13.19574296499713	0.2303091619860788	-5.033860674675299	0	0	0	0	0	0	-6.225043933160496	0	65.86642044302637	46.97330670723915	0	0	0	-6.225043933160496	0	65.86642044302637	46.97330670723915	0	0
5.41973	-36.88176239951552	-19.64662747089325	-53.79453086358475	0	0.9399999999999999	0	101.9435476312615	29.98619540116444	-15.09119857347387	69.8088192158948	1.21839374224685	-5.033611954071549	0	0	36.74756618032362	-49.94844507142797	-39.99447086890112	13.95339814452543	0.2435327394636364	-5.033611954071549	0	0	0	0	0	0	-6.232329247459001	0	65.88137165025196	46.96449020177088	0	0	0	-6.232329247459001	0	65.88137165025196	46.96449020177088	0	0
5.47132	-35.30070621864223	-20.58071062832505	-52.13188192368584	0	0.9399999999999999	0	98.94074321032345	29.98642192270965	-13.02437031152882	70.61999985284089	1.232551515189985	-5.033352391482573	0	0	35.04808846191862	-49.87987233587408	-39.99429501455091	14.58501924756943	0.2545566073368326	-5.033352391482573	0	0	0	0	0	0	-6.239972253045654	0	65.8970485543876	46.95526624432732	0	0	0	-6.239972253045654	0	65.8970485543876	46.95526624432732	0	0
5.53767	-31.47281307622247	-21.21509773160119	-48.5686420430841	0	0.9399999999999999	0	93.33811947172107	29.98518527921183	-9.026222672908538	71.43870002346441	1.246840528754004	-5.032963673448858	0	0	30.91998879686625	-46.7022352374568	-39.99453333964669	13.70165696184225	0.2391390269629503	-5.032963673448858	0	0	0	0	0	0	-6.251517670186614	0	65.92070277853774	46.94140043363902	0	0	0	-6.251517670186614	0	65.92070277853774	46.94140043363902	0	0
5.54254	-27.23694350145607	-20.91584013030315	-44.87884469826415	0	0.9399999999999999	0	87.70045476699541	29.98219929841893	-4.310383133911496	72.58906906214743	1.266918256092025	-5.032600364575826	0	0	26.1516163571875	-41.49314578382343	-39.99500247776008	11.12184137013836	0.1941127507934318	-5.032600364575826	0	0	0	0	0	0	-6.262418056357704	0	65.9430070873926	46.92838263643748	0	0	0	-6.262418056357704	0	65.9430070873926	46.92838263643748	0	0
